<?xml version="1.0" standalone="no"?>
<!DOCTYPE svg PUBLIC "-//W3C//DTD SVG 20010904//EN"
 "http://www.w3.org/TR/2001/REC-SVG-20010904/DTD/svg10.dtd">
<svg version="1.0" xmlns="http://www.w3.org/2000/svg"
 width="700.000000pt" height="700.000000pt" viewBox="0 0 700.000000 700.000000"
 preserveAspectRatio="xMidYMid meet">
<metadata>
Created by potrace 1.11, written by Peter Selinger 2001-2013
</metadata>
<g transform="translate(0.000000,700.000000) scale(0.100000,-0.100000)"
fill="#000000" stroke="none">
<path d="M934 6389 c-152 -19 -293 -148 -320 -294 -4 -22 -7 -1194 -7 -2605 0
-2721 -2 -2589 45 -2683 27 -54 95 -125 142 -149 105 -53 -88 -50 2706 -49
l2585 1 63 22 c122 43 221 165 239 298 5 30 8 1196 7 2590 -1 2721 2 2591 -51
2686 -46 82 -155 162 -245 179 -43 8 -5098 12 -5164 4z m1252 -2722 l0 -882
487 -3 487 -2 0 -155 0 -155 -647 0 -648 0 1 1032 c1 568 2 1037 3 1041 0 4
72 7 159 7 l158 -2 0 -881z m1928 488 c148 -217 272 -392 275 -390 3 2 71 103
151 224 80 122 195 297 255 389 l110 167 188 3 c150 2 187 0 181 -10 -7 -12
-45 -69 -281 -413 -178 -260 -287 -420 -357 -523 -52 -76 -68 -107 -61 -117
27 -39 708 -973 720 -988 8 -9 15 -19 15 -22 0 -3 -91 -5 -202 -5 l-203 1 -85
124 c-230 337 -462 670 -468 672 -4 1 -59 -75 -122 -168 -63 -93 -144 -212
-180 -264 -36 -52 -107 -155 -158 -230 l-93 -135 -185 0 c-101 0 -184 3 -184
8 0 4 29 46 63 94 34 48 94 132 132 187 39 56 113 161 165 235 52 74 121 172
153 218 31 46 95 137 141 202 l83 120 -137 190 c-75 105 -229 319 -341 476
-113 157 -215 300 -227 317 l-23 33 203 -1 203 -1 269 -393z"/>
</g>
</svg>
