<svg xmlns="http://www.w3.org/2000/svg" viewBox="0 0 300 300"><path d="M146.837 75.427l48.86 115.946h-32.014l-14.616-36.932h-35.773zM119.81 7.77H43.074v183.613zm54.035 0h76.694v183.613zm65.663 257.013c.062-6.77-1.924-11.516-5.727-11.516-4.338 0-6.183 6.352-6.314 11.516h12.042zm-12.086 8.477c.14 8.72 4.726 11.56 10.417 11.56 3.608 0 6.7-.802 8.984-1.66l1.616 8.624c-3.18 1.37-8.09 2.23-12.798 2.23-12.867 0-19.894-8.793-19.894-23.81 0-16.118 8.15-25.798 18.796-25.798 10.285 0 15.985 8.555 15.985 22.52 0 3.197-.133 4.998-.344 6.402l-22.764-.068zm-40.49 3.01c0 1.204.22 2.33.475 3.083 1.203 4.033 3.24 5.025 4.874 5.025 4.64 0 6.51-5.877 6.51-15.275 0-8.555-1.977-14.447-6.562-14.447-2.274 0-4.19 2.47-4.848 5.12-.23.835-.448 2.134-.448 3.03v13.465zm-11.99-51.08h11.99v25.118h.192c2.362-3.707 5.507-5.824 10.074-5.824 9.038 0 13.58 10.277 13.58 23.715 0 16.978-6.773 26.067-15.548 26.067-4.18 0-6.965-1.854-9.477-6.55h-.253l-.667 5.77H174.54c.175-3.997.402-9.47.402-13.79V225.19zm-24.487 59.882c4.576 0 5.71-8.625 5.71-15.766 0-6.79-1.134-15.635-5.91-15.635-5.06 0-6.124 8.847-6.124 15.636 0 8.195 1.336 15.766 6.22 15.766h.105zm-.228 9.196c-11.05 0-17.98-8.87-17.98-24.75 0-17.33 8.898-25.033 18.26-25.033 10.9 0 17.734 9.303 17.734 24.752 0 19.85-10.705 25.03-17.916 25.03h-.097zm-36.73-30.495c0-.887 0-1.924-.177-2.873-.465-3.285-2.213-6.244-5.024-6.244-4.822 0-6.596 6.947-6.596 15.072 0 9.336 2.53 14.65 6.43 14.65 1.782 0 3.837-.914 4.953-4.832.272-.78.413-1.826.413-3.047v-12.727zm11.988-38.584v54.507c0 4.32.22 9.635.396 13.79h-10.354l-.676-5.544h-.246c-1.74 3.418-5.524 6.324-10.048 6.324-9.916 0-14.834-10.943-14.834-24.76 0-16.836 7.333-25.023 15.326-25.023 4.18 0 6.886 2.047 8.248 5.008h.202V225.19h11.987zM70.94 268.11L68.51 253.7c-.694-4.155-1.58-10.647-2.257-15.144h-.263c-.71 4.53-1.704 11.207-2.433 15.178l-2.618 14.377H70.94zm-11.31 9.392l-3.163 15.994h-11.68l14.57-66.54h14.316l13.236 66.54H75.166l-3.092-15.994H59.63zM276.14 22.237h1.74c2.143 0 3.9-.71 3.9-2.59 0-1.415-1.038-2.724-3.76-2.724-.853 0-1.433 0-1.88.062v5.252zm0 9.134h-2.916V15.176c1.353-.193 2.715-.457 4.857-.457 2.59 0 4.207.527 5.243 1.31.905.71 1.423 1.8 1.423 3.363 0 2.074-1.362 3.426-3.1 3.883v.123c1.413.264 2.317 1.555 2.643 3.96.387 2.53.71 3.488.975 4.015h-2.978c-.387-.526-.72-2.01-1.045-4.136-.316-1.958-1.414-2.73-3.426-2.73h-1.68v6.867zm2.653-20.534c-6.412 0-11.594 5.375-11.594 12.112s5.183 12.112 11.656 12.112c6.41.07 11.532-5.375 11.532-12.112s-5.12-12.112-11.532-12.112h-.06zm.06-2.46c8.02 0 14.432 6.483 14.432 14.51 0 8.16-6.412 14.634-14.492 14.634a14.578 14.578 0 0 1-14.633-14.633c0-8.028 6.543-14.51 14.633-14.51h.06z"/></svg>