<svg xmlns="http://www.w3.org/2000/svg" viewBox="0 0 717.7 205.13"><path d="M172.11 106.02H106v66.11h66.11zm-73 0H33v66.11h66.11zm73-73.02H106v66.113h66.11zm-72.99 0H33v66.113h66.12zm571.39 62.943v28.207c0 3.61.63 6.2 1.89 7.68 1.27 1.46 3.35 2.2 6.06 2.2.75 0 1.7-.16 2.83-.48 1.14-.31 2.08-.73 2.84-1.24l.57-.39v11.57l-.19.11c-.82.49-2.27.94-4.35 1.4-2.08.44-4.1.66-6.05.66-11.79 0-17.73-6.4-17.73-19.03V95.943h-21.1v48.287h-14.23V95.943h-9.91v-11.46h9.91v-8.27c0-4.154.92-7.908 2.73-11.16 1.81-3.253 4.4-5.813 7.7-7.606 3.29-1.79 7.06-2.694 11.21-2.694 3.29 0 5.95.354 7.9 1.056l.25.09v12.07l-.53-.234c-2.09-.934-4.17-1.408-6.18-1.408-2.79 0-4.99.897-6.52 2.663-1.54 1.79-2.33 4.47-2.33 7.972v7.52h21.1V70.98l.26-.08 13.37-4.09.5-.147v17.82h14.19v11.46zm-91.14 38.087c5.19 0 9.17-1.68 11.81-4.98 2.66-3.34 4.01-8.33 4.01-14.81 0-6.41-1.43-11.33-4.26-14.617-2.82-3.29-6.74-4.95-11.67-4.95-5.09 0-9.12 1.74-11.99 5.17-2.89 3.447-4.36 8.407-4.36 14.737 0 6.14 1.47 10.98 4.35 14.37 2.88 3.37 6.95 5.08 12.11 5.08m.64-50.988c9.28 0 16.63 2.762 21.87 8.21 5.23 5.44 7.88 13.028 7.88 22.528 0 9.62-2.82 17.42-8.4 23.18-5.57 5.78-13.25 8.7-22.8 8.7-9.16 0-16.57-2.77-22.01-8.25-5.44-5.49-8.21-13.01-8.21-22.37 0-9.84 2.84-17.717 8.41-23.417 5.58-5.694 13.4-8.58 23.26-8.58m-54.6 0c2.05 0 4.41.243 7 .723 2.62.485 4.77 1.084 6.4 1.783l.22.1v12.987l-.58-.39c-1.77-1.2-3.89-2.19-6.3-2.92-2.41-.73-4.83-1.11-7.2-1.11-2.56 0-4.6.58-6.06 1.71-1.45 1.13-2.16 2.52-2.16 4.263 0 1.96.58 3.5 1.71 4.6 1.16 1.14 4 2.61 8.43 4.39 5.56 2.24 9.55 4.78 11.85 7.54 2.31 2.78 3.48 6.22 3.48 10.25 0 5.59-2.18 10.15-6.48 13.58-4.27 3.39-10.13 5.11-17.4 5.11-2.36 0-5.07-.31-8.05-.92-3-.62-5.53-1.41-7.55-2.33l-.22-.11v-13.7l.6.43c2.41 1.74 5.09 3.1 7.96 4.04s5.48 1.42 7.78 1.42c6.18 0 9.19-1.95 9.19-5.96 0-1.41-.29-2.55-.88-3.39-.6-.85-1.67-1.73-3.17-2.6-1.53-.88-3.95-2.01-7.19-3.34-3.86-1.66-6.76-3.28-8.65-4.84-1.9-1.56-3.33-3.43-4.25-5.55-.92-2.12-1.39-4.61-1.39-7.41 0-5.403 2.17-9.863 6.43-13.263 4.23-3.377 9.78-5.09 16.48-5.09m-59.99 50.983c5.19 0 9.16-1.68 11.8-4.98 2.66-3.34 4.01-8.32 4.01-14.8 0-6.41-1.43-11.33-4.26-14.623-2.81-3.29-6.74-4.95-11.67-4.95-5.09 0-9.12 1.74-11.99 5.17-2.89 3.453-4.35 8.413-4.35 14.743 0 6.14 1.46 10.97 4.35 14.36 2.87 3.37 6.94 5.08 12.11 5.08m.63-50.988c9.28 0 16.64 2.762 21.87 8.215 5.24 5.44 7.89 13.033 7.89 22.533 0 9.61-2.83 17.41-8.4 23.17-5.58 5.78-13.26 8.7-22.8 8.7-9.17 0-16.58-2.77-22.02-8.25-5.44-5.49-8.2-13.01-8.2-22.36 0-9.84 2.83-17.723 8.4-23.423 5.58-5.698 13.4-8.585 23.26-8.585m-53.26 11.785h.15c1.31-3.36 3.03-6.06 5.41-8.016 2.71-2.234 5.87-3.37 9.4-3.37 2.34 0 4.19.282 5.5.84l.23.1v14.177l-.6-.43c-.65-.47-1.75-.92-3.27-1.33-1.54-.41-2.96-.62-4.23-.62-3.73 0-6.79 1.61-9.08 4.803-2.33 3.22-3.51 7.49-3.51 12.69v30.55h-14.05V84.482h14.05v10.355zm-39.22-11.785c2.51 0 5.15.283 7.86.843 2.71.562 4.9 1.303 6.5 2.2l.19.107v13.57l-.59-.43c-4.26-3.09-8.76-4.66-13.38-4.66-5.4 0-9.84 1.83-13.18 5.438-3.36 3.62-5.06 8.53-5.06 14.59 0 6.02 1.63 10.8 4.85 14.21 3.22 3.4 7.64 5.12 13.16 5.12 1.98 0 4.25-.44 6.73-1.3 2.49-.87 4.81-2.08 6.87-3.58l.6-.43v12.87l-.19.11c-4.57 2.63-10.27 3.96-16.95 3.96-5.72 0-10.89-1.25-15.36-3.73-4.49-2.48-8.02-6.06-10.52-10.63-2.5-4.57-3.76-9.75-3.76-15.39 0-6.45 1.3-12.23 3.87-17.167 2.58-4.96 6.36-8.86 11.27-11.593 4.89-2.725 10.64-4.108 17.09-4.108m-41.92 61.178H317.6V84.482h14.05zm-6.88-85.19c2.44 0 4.49.81 6.11 2.41 1.62 1.604 2.45 3.554 2.45 5.797 0 2.29-.85 4.223-2.52 5.75-1.65 1.515-3.68 2.285-6.04 2.285-2.35 0-4.38-.77-6.01-2.29-1.65-1.522-2.48-3.456-2.48-5.745 0-2.324.84-4.294 2.51-5.86 1.65-1.56 3.67-2.347 5.98-2.347m-35.53 21.044l-25.45 64.146h-10.17l-25.86-64.152h-.46v64.152h-13.48V60.86h20.66l24.49 61.92 25.23-61.92h19.85v83.36h-14.34V80.074z"/></svg>