<?xml version="1.0" encoding="UTF-8"?>
<svg width="601px" height="268px" viewBox="0 0 601 268" version="1.1" xmlns="http://www.w3.org/2000/svg" xmlns:xlink="http://www.w3.org/1999/xlink">
    <!-- Generator: Sketch 49.3 (51167) - http://www.bohemiancoding.com/sketch -->
    <title>stanford</title>
    <desc>Created with Sketch.</desc>
    <defs></defs>
    <g id="Page-1" stroke="none" stroke-width="1" fill="none" fill-rule="evenodd">
        <g id="stanford" fill="#000000" fill-rule="nonzero">
            <path d="M159.3,125.9 C137.9,125.9 136.2,109.6 136.2,104.8 C136.2,99.1 137.5,88.5 151.4,83.4 C165.3,78.3 168.3,77.7 178.2,74.6 L178.2,72.2 C178.2,67.4 178.2,66.5 177.1,63.4 C175.4,57.9 170,54.2 162.5,54.2 C155.4,54.2 149.3,58.2 146.5,64.1 L142.5,61.7 C144.9,52.9 154,44.1 169.6,44.1 C180.4,44.1 187.9,47.2 192.3,54 C195.6,59.5 196,66.9 196,74.4 C196,81.2 195.6,88.7 195.6,94.8 C195.6,98.8 195.2,102.7 195.2,104.9 C195.2,110.4 196.3,114.8 200.7,114.8 C202.7,114.8 203.1,114.1 204.7,113.1 L207.1,116.2 C203.1,121.7 198.3,126.1 190.4,126.1 C184.3,126.1 179.9,123 178.1,118 C175.6,121.5 169.1,125.9 159.3,125.9 Z M178.2,84.4 C167.7,87.5 163.9,89.2 160.9,90.8 C156.1,93.2 154.1,97.6 154.1,103.3 C154.1,107.7 155.8,114.8 166,114.8 C169.3,114.8 174.1,114.1 178.5,111.1 L178.5,84.3 L178.2,84.3 L178.2,84.4 Z M1.5,121.7 C1.5,113.8 1.5,107.1 0.8,99 L5.6,99 C5.6,104.1 6.9,107.8 9.3,110.2 C12.6,113.9 20.5,116.3 27.6,116.3 C42.5,116.3 49.6,110.6 49.6,98.3 C49.6,87.8 43.2,83.4 34.4,77.2 L33.1,76.1 L23.6,69.7 C10.4,60.9 3.6,54.1 3.6,40.2 C3.6,33.4 6.3,11 39.2,11 C47.7,11 58.5,12.1 65,13 C65,14.1 64.6,19.1 64.6,23.5 C64.6,28.6 64.6,29.9 65,36 L61,36 C61,30.5 59.3,27.2 57,24.8 C53.9,21.7 46.9,20 39.4,20 C21.8,20 19.8,28.8 19.8,35.6 C19.8,44.8 24.6,48.1 35,54.9 L46.9,62.8 C57,69.6 66.5,76 66.5,93 C66.5,121.5 39.7,124.5 28.5,124.5 C18.2,125.9 9.6,124.4 1.5,121.7 Z M214.5,49.2 C218.5,49.6 224.6,49.2 230.5,48.1 C235.6,47 237.3,46.4 241,44.8 L242.7,45.9 L242.7,52 C246.7,48.9 254.6,44.5 265.8,44.5 C280.1,44.5 289.3,51.3 291.9,63.2 C292.6,66.3 293,73.3 293,77.5 L293,100.6 C293,113.5 293.7,117.3 296.1,119.6 C297.4,120.7 300.1,122 304,122 L304,125.7 C298.9,125.3 289.7,125 284.4,125 C277.3,125 269.2,125.4 264.8,125.7 L264.8,122 C268.8,121.6 271.2,120.3 272.7,119.3 C275.1,116.9 275.4,112.5 275.8,102.6 C275.8,99.5 276.2,93.4 276.2,89 C276.2,83.3 276.2,77.1 275.5,71 C274.4,60.9 269.1,56.1 258.8,56.1 C251.7,56.1 247.3,57.8 243.9,59.4 L243.9,100.8 C243.9,113.7 244.6,117.5 247,119.8 C248.3,120.9 251.4,122.2 254.5,122.2 L254.5,125.9 C248.1,125.5 240.2,125.2 235.2,125.2 C224.7,125.2 221.3,125.6 215.2,125.9 L215.2,122 C218.5,122 222,120.7 223.7,118.7 C226.1,116 226.4,109.2 226.4,96 L226.4,72.5 C226.4,62.6 226,58.6 224.7,56.5 C223.6,54.8 221,53.4 215.5,53.4 L215.5,49 L214.8,49 L214.8,49.2 L214.5,49.2 Z M312.6,121.5 C315.9,121.5 319.4,120.4 321.1,118.2 C323.5,115.5 323.8,108.7 323.8,95.5 L323.8,56 L313.7,56 L313.7,51.6 C318.1,49.9 321.8,47.9 323.8,46.1 C323.8,39 324.2,30.1 325.1,25 C328.2,8.7 338.7,0.6 356.6,0.6 C364.5,0.6 371.8,3.3 376.6,7 L377,8.7 L369.1,19.5 L367.1,19.5 C364.4,13.1 360.3,9.4 353.2,9.4 C350.8,9.4 347.5,10.1 345.3,12.1 C342,15.4 341.3,20.6 341.3,30.8 L341.3,46 L358.9,46 L358.9,55.9 L341.3,55.9 L341.3,99.7 C341.3,110.2 341.7,115.3 343,117.3 C345,120.6 352.2,121 355.5,121 L355.5,125 C349.8,124.6 340.6,124.3 334.1,124.3 C324.2,124.3 317.8,124.7 312.7,125 L312.6,121.5 Z M403.5,126.5 C379.5,126.5 365.2,111.6 365.2,86.5 C365.2,66.9 375.7,44.1 405.2,44.1 C429.2,44.1 443.5,59 443.5,84.1 C443.5,103.7 432.9,126.5 403.5,126.5 Z M404.5,53.2 C399.7,53.2 396,54.5 393.3,56.9 C386.9,62.4 383.8,71.8 383.8,85.7 C383.8,91.2 384.9,117.6 404.2,117.6 C409,117.6 412.7,116.3 415.4,113.9 C421.8,108.4 424.9,99 424.9,85.1 C424.8,79.7 423.9,53.2 404.5,53.2 Z M451.6,48.8 C457.1,49.2 462.8,48.4 468.9,47.5 C473.7,46.8 476.8,45.8 478.4,44.8 L479.7,45.5 L479.7,52.3 C483.4,48.6 489.6,44.8 498,44.8 C504.1,44.8 508.1,46.5 511.9,49.6 L511.9,52 L505.1,64.3 L501.8,64.3 C499.8,60.6 495.7,57.2 488.6,57.2 C485.3,57.2 482.5,57.9 480.1,59.6 L480.1,100 C480.1,110.5 480.5,115.2 481.8,117.3 C483.8,120.6 490.6,121 494.3,120.6 L494.3,125 C488.8,124.6 479.4,124.3 472.9,124.3 C465.4,124.3 457.7,124.3 451.5,125 L451.5,121 C455.9,120.6 458.3,119.7 460,117.7 C462.4,115 462.7,108.5 462.7,95 L462.7,73 C462.7,63.1 462.7,59.1 461,57 C459.7,55.3 457,54.3 451.8,54.3 L451.8,49.2 L451.6,48.8 Z M562.6,5.4 C567.4,5.4 573.4,4.3 581.3,3 C585.7,2.3 588.4,1.3 589.8,1 L591.1,1.7 C590.4,8.1 590.4,22.8 590.4,33.2 L590.4,97.6 C590.4,107.1 590.4,113.2 591.7,115.2 C593,116.9 595.7,118.3 600.9,118.3 L600.9,122.3 C595.8,122.3 590.1,123 584,124 C580,124.7 576.9,125.3 575.2,126 L573.2,125.3 L573.2,118.5 C569.2,121.6 561.7,126 551.2,126 C529.5,126 515.6,111.1 515.6,87.7 C515.6,79.8 516.9,72.8 519.6,66.3 C526.4,52 540,43.9 557.2,43.9 C563.6,43.9 569.1,44.6 572.4,45.2 L572.4,28.5 C572.4,18.6 572.4,13.6 570.7,11.2 C569.6,9.5 568,8.8 562.2,8.5 L562.2,5.3 L562.6,5.3 L562.6,5.4 Z M559.8,114.9 C565.3,114.9 569,114.2 572.7,111.8 L572.7,59 C571.4,57.7 566.6,53.5 557.1,53.5 C541.9,53.5 534.4,64 534.4,85.8 C534.1,94.9 536.8,114.9 559.8,114.9 Z M128.4,117.3 C126,120.4 119.9,126.5 107,126.5 C94.7,126.5 88,122.1 85,112.2 C83.7,108.5 83.7,100.7 83.7,96.2 C83.7,83.7 83.7,73.5 84.1,61.6 L84.1,56.1 L73.5,56.1 L73.5,53 C77.5,51.3 80.6,49.7 83.4,47.5 C89.5,42.7 93.5,37 98,28.5 L101.3,28.5 L101.3,46.1 L128.1,46.1 L128.1,56 L101.3,56 L101.3,97.4 C101.3,109.9 103.7,116.7 115.2,116.7 C120.7,116.7 124.4,115 126.4,113.6 L128.4,117.3 Z" id="Shape"></path>
            <path d="M504.3,191.3 C503,191.3 501.2,191.7 500.3,192.6 C499.2,193.3 499.2,194.3 499.2,195 C499.2,196.3 499.6,197.4 500.5,200.1 L508,219.7 C509.1,222.8 510,225.2 510.4,226.8 L519.6,200 C520.7,196.9 520.9,196.3 520.9,194.9 C520.9,194.2 520.5,193.6 519.8,192.9 C518.7,192.2 517.4,191.6 515.8,191.6 L515.8,188.5 C516.9,188.5 519.1,188.5 520.2,188.9 C521.3,188.9 523.3,189.3 525,189.3 C528.3,189.3 533.1,188.9 535.1,188.9 L535.1,192 C533.8,192.4 530.7,191.6 528,199.5 L508.7,251 C506,258.5 502.3,267.7 489.1,267.7 C483.6,267.7 479.9,266.4 476.8,263.7 L476.8,262.4 L481.6,256.7 L482.9,256.7 C484.2,259.8 486.9,261.1 490.8,261.1 C496.9,261.1 499.6,255.6 503.7,244.8 L504.8,241.7 L488.6,199.4 C488.6,199 488.2,198.3 487.9,197.7 C487.5,196.6 486.6,194.6 486.6,194.6 C485.5,192.6 483.9,191.9 481.8,191.9 L481.8,188.8 C484.9,189.2 490.3,189.2 493,189.2 C494.7,189.2 497.4,189.2 500.1,188.8 C501.4,188.8 503.8,188.4 504.9,188.4 L504.9,191.1 L504.5,191.1 L504.5,191.3 L504.3,191.3 Z M324.7,190.6 C328,191 331.8,190.2 335.5,189.5 C338.6,188.8 340.3,188.4 341.6,187.8 L342.7,188.2 L342.7,192.6 C345.1,190.2 348.8,187.8 354.2,187.8 C358.2,187.8 360.6,188.9 363,190.9 L363,192.6 L359,200.5 L357,200.5 C355.7,198.1 353.3,196.1 348.5,196.1 C346.5,196.1 344.8,196.8 343,197.8 L343,223.3 C343,230.1 343.4,233.2 344.1,234.5 C345.4,236.5 349.6,236.9 352,236.9 L352,239.6 C348.7,239.2 342.5,239.2 338.4,239.2 C333.6,239.2 328.5,239.2 324.8,239.9 L324.8,237.2 C327.5,237.2 329.2,236.1 330.3,235.2 C332,233.5 332,229.5 332,220.6 L332,206.3 C332,200.2 332,197.5 330.9,196.2 C330.2,195.1 328.2,194.5 325.2,194.5 L325.2,190.8 L324.7,190.8 L324.7,190.6 Z M98.9,239.8 C84.6,239.8 76.2,235.4 73.1,225.9 C71.4,221.1 71.4,215.1 71.4,210.3 L71.4,183.2 C71.4,175.1 71,173.7 69.4,172.4 C68.7,171.7 67,171.1 64.6,170.7 L64.6,168 C67.9,168.4 73.8,168.7 77.1,168.7 C82.8,168.7 86.3,168.7 90,168 L90,171.1 C87.6,171.1 86,171.8 84.5,173.1 C82.8,174.8 82.8,177.9 82.8,186.7 L82.8,210.7 C82.8,225 84.1,234.2 100.1,234.2 C116.4,234.2 117.4,224.7 117.4,210.2 L117.4,183.8 C117.4,175.7 117,174.3 115.4,173 C114.3,172.3 112.7,171.7 110.6,171.3 L110.6,168.6 C113.7,168.6 117.7,169 121.8,169 C125.5,169 129.3,169 133.7,168.3 L133.7,171.4 C131.3,171.4 129.7,172.1 128.2,173.4 C126.5,175.1 126.5,178.2 126.5,187 L126.5,207.4 C126.5,213.8 126.5,221 124.5,226.7 C121.3,235.4 113.1,239.8 98.9,239.8 Z M195.6,236.7 C198.3,236.3 200,236 201.3,234.7 C203,233 203,229 203,220.1 L203,205.8 C203,199.7 203,196.6 201.9,195.3 C201.2,194.2 199.9,193.6 196.2,193.3 L196.2,190.2 C198.2,190.6 203.7,189.8 207.7,189.1 C209.7,188.7 211.7,188 213.2,187.4 L214.3,188.5 C213.9,191.8 213.9,199 213.9,208.5 L213.9,223.1 C213.9,229.9 214.3,233 215,234.3 C216.1,235.6 218.1,236.7 221.1,236.7 L221.1,239.1 C218.4,238.7 213.2,238.7 208.8,238.7 C203.7,238.7 198.3,239.1 195.6,239.4 L195.6,236.7 Z M208.1,178.7 C204.1,178.7 201.7,176.3 201.7,172.6 C201.7,168.9 204.4,166.2 208.5,166.2 C212.5,166.2 214.9,168.6 214.9,172.3 C214.8,176.3 212.1,178.7 208.1,178.7 Z M410,236.7 C412.7,236.3 414.4,236 415.7,234.7 C417.4,233 417.4,229 417.4,220.1 L417.4,205.8 C417.4,199.7 417.4,196.6 416.3,195.3 C415.6,194.2 414.3,193.6 410.6,193.3 L410.6,190.2 C412.6,190.6 418.1,189.8 422.1,189.1 C424.1,188.7 426.5,188 427.6,187.4 L428.7,188.5 C428.3,191.8 428.3,199 428.3,208.5 L428.3,223.1 C428.3,229.9 428.7,233 429.4,234.3 C430.5,235.6 432.5,236.7 435.5,236.7 L435.5,239.1 C432.4,238.7 427.4,238.7 423,238.7 C417.9,238.7 412.5,239.1 409.8,239.4 L409.8,236.7 L410,236.7 Z M422.5,178.7 C418.5,178.7 416.1,176.3 416.1,172.6 C416.1,168.9 418.8,166.2 422.9,166.2 C426.9,166.2 429.3,168.6 429.3,172.3 C429.3,176.3 426.5,178.7 422.5,178.7 Z M368.9,237.4 C368.9,232.3 368.5,226.9 368.2,224.2 L371.5,224.2 C371.5,226.9 372.2,229.3 373.5,230.6 C375.5,233 377.9,233.9 382.3,233.9 L383,233.9 C388.5,233.9 391.5,231.5 391.5,226.8 C391.5,223.1 389.1,221.3 385.1,218.9 L378,214.5 C374.3,212.1 369.9,208.8 369.9,201.6 C369.9,195.9 372.3,191.5 377,189.1 C380.1,187.4 384.9,187.4 387.1,187.4 C391.1,187.4 397,188.1 400.3,188.7 C399.9,190 399.9,193.5 399.9,194.8 C399.9,195.9 399.9,200.5 400.3,201.6 L397,201.6 C397,199.6 396.3,197.6 395,195.9 C393.7,194.2 390.6,193.2 386.9,193.2 C381.8,193.2 379,195.2 379,199.6 C379,202.9 381.7,204.7 384.1,206.4 L384.5,206.4 L391.3,210.4 C395.7,213.1 401.4,216.5 401.4,224.3 C401.4,237.5 389.1,239.5 382.1,239.5 C378.1,239.4 373.7,239.1 368.9,237.4 Z M475.4,234.1 C473.7,235.8 469.9,239.8 461.8,239.8 C453.9,239.8 449.5,237.1 447.9,230.6 C447.2,228.2 447.2,223.1 447.2,220.5 C447.2,212.4 447.2,205.9 447.2,198.5 L447.2,195.2 L440.4,195.2 L440.4,193.2 C443.1,192.1 444.8,191.2 446.8,189.9 C450.5,186.8 453.2,183.1 456.3,177.6 L458.7,177.6 L458.7,188.8 L475.6,188.8 L475.6,194.9 L458.7,194.9 L458.7,221.3 C458.7,229.2 460,233.8 467.5,233.8 C470.8,233.8 473.2,232.7 474.6,231.8 L475.4,234.1 Z M246,188.6 C244.9,188.6 242.7,188.6 241.2,189 C238.5,189 235.7,189.4 233.7,189.4 C230,189.4 224.5,189 222.9,189 L222.9,192.1 C223.6,192.1 226.2,191.7 228,195.2 C228.7,196.5 229.1,197.6 229.3,198.3 C229.7,199 230,199.6 230,200 L246.3,240.7 L251.4,239.6 L269.4,199.6 C269.4,199.2 269.8,198.9 270.1,198.3 C270.5,197.9 270.5,197.2 271.8,195.2 C272.9,193.2 275.1,192.1 276.9,192.1 L276.9,189 C274.9,189 270.5,189.4 267,189.4 C265.3,189.4 263.7,189.4 261.9,189 C260.6,189 258.6,188.6 257.1,188.6 L257.1,191.3 C258.8,191.3 260.4,192 261.1,192.6 C261.5,193 262.2,193.9 262.2,194.6 C262.2,195.7 261.8,196.6 260.9,199.7 L251,223.7 C250.6,222.4 249.9,220.4 249,217.6 L242.2,199.6 C241.1,196.9 240.9,195.9 240.9,194.5 C240.9,193.8 240.9,193.2 241.6,192.8 C242.7,191.7 244.3,191.1 246,191.1 L246,188.4 L246,188.6 Z M135.2,190.6 C137.9,191 141.6,190.6 145.3,189.9 C148.4,189.2 149.7,188.8 152.1,187.9 L153.2,188.6 L153.2,192.6 C155.6,190.6 161.1,187.8 167.8,187.8 C177,187.8 182.7,192.2 184.5,199.7 C184.9,201.7 185.2,206.1 185.2,208.9 L185.2,223.5 C185.2,231.6 185.6,234 187.2,235.8 C187.9,236.5 189.9,237.1 192,237.1 L192,239.5 C188.7,239.5 182.8,239.1 179.5,239.1 C174.7,239.1 169.6,239.5 167,239.8 L167,237.4 C169.4,237 171,236.3 172.1,235.7 C173.4,234.4 173.8,231.3 174.1,225.2 C174.1,223.2 174.1,219.5 174.1,216.4 C174.1,212.7 174.1,208.5 173.7,204.9 C173,198.5 169.7,195.4 163.2,195.4 C158.8,195.4 155.7,196.5 153.7,197.4 L153.7,224 C153.7,232.1 154.1,234.5 155.7,236.3 C156.4,237 158.4,237.6 160.5,237.6 L160.5,240 C156.1,238.9 151,238.9 147.6,238.9 C140.8,238.9 138.8,238.9 135.1,239.6 L135.1,237.2 C137.1,237.2 139.5,236.5 140.6,235.2 C141.9,233.5 142.3,229.1 142.3,220.6 L142.3,206.3 C142.3,200.2 142.3,197.5 141.2,196.2 C140.5,195.1 138.8,194.2 135.5,194.5 L135.5,190.7 L135.2,190.7 L135.2,190.6 Z M300,239.8 C284.8,239.8 276.5,231 276.5,215 C276.5,212.3 277.2,187.5 300.2,187.5 C307,187.5 313.1,190.2 315.8,195 C318.9,199.8 319.1,204.5 319.1,208.6 L319.1,211.7 L287.6,211.7 C287.6,214.4 288,216.5 288.3,218.1 C290,228 295.4,232.7 305,232.7 C310.5,232.7 313.8,231.6 316.9,229.6 L318.2,232 C315,236.5 308.2,239.8 300,239.8 Z M287.8,205.9 L307.4,205.9 C307.4,199.8 306.3,193 297.5,193 C289.8,193.4 288.2,200.7 287.8,205.9 Z" id="Shape"></path>
        </g>
    </g>
</svg>